<svg version="1.1" viewBox="0.0 0.0 480.0 360.0" fill="none" stroke="none" stroke-linecap="square" stroke-miterlimit="10" xmlns:xlink="http://www.w3.org/1999/xlink" xmlns="http://www.w3.org/2000/svg"><clipPath id="g1bc18c8f8e4_1_0.0"><path d="m0 0l480.0 0l0 360.0l-480.0 0l0 -360.0z" clip-rule="nonzero"/></clipPath><g clip-path="url(#g1bc18c8f8e4_1_0.0)"><path fill="#000000" fill-opacity="0.0" d="m0 0l480.0 0l0 360.0l-480.0 0z" fill-rule="evenodd"/><path fill="#00ffff" d="m11.094473 68.53281l0 203.76926l34.72999 0l0 -61.575577l28.15945 -34.0542l47.28441 95.629776l44.937782 0l-68.28666 -124.4021l64.76673 -79.36716l-46.697746 0l-70.16397 90.48689l0 -90.48689z" fill-rule="evenodd"/><path stroke="#00ffff" stroke-width="1.0" stroke-linejoin="round" stroke-linecap="butt" d="m11.094473 68.53281l0 203.76926l34.72999 0l0 -61.575577l28.15945 -34.0542l47.28441 95.629776l44.937782 0l-68.28666 -124.4021l64.76673 -79.36716l-46.697746 0l-70.16397 90.48689l0 -90.48689z" fill-rule="evenodd"/><path fill="#eeff41" d="m185.46709 94.25565c8.398544 0 16.02324 2.044281 22.874084 6.132843c6.8736115 4.0885544 12.666107 9.699448 17.377487 16.83268c4.984497 7.4811935 8.774094 16.252747 11.368759 26.314667c2.5946808 10.032913 3.8920135 21.269196 3.8920135 33.708862c0 12.613632 -0.97869873 23.733932 -2.936081 33.3609c-1.9346161 9.597961 -5.0186462 18.050552 -9.25206 25.357758c-4.0285645 6.959259 -9.286194 12.396164 -15.772873 16.310745c-6.486679 3.9145813 -14.065857 5.8718567 -22.737534 5.8718567c-7.510895 0 -13.075775 -1.5223083 -16.694656 -4.5670013c-3.6188965 -3.0446625 -5.4283295 -8.52507 -5.4283295 -16.441223l0 -142.36014c1.707016 -0.08699036 4.3130646 -0.18847656 7.8181458 -0.30446625c3.5278473 -0.14498138 6.6915283 -0.21747589 9.491043 -0.21747589zm-58.175285 -10.569359l0 9.2645035c1.7752914 0.17398071 3.892006 0.5654373 6.3501205 1.1743698c2.4580994 0.6089325 4.745514 1.565834 6.8622284 2.8706894c2.3215485 1.3918533 3.8692474 3.262146 4.643097 5.6108932c0.7966156 2.3487473 1.1949158 5.0019608 1.1949158 7.959648l0 133.61758c0 3.1316528 -0.46658325 5.813858 -1.399765 8.046631c-0.9104004 2.2037506 -2.3898315 3.8710632 -4.4382477 5.001953c-1.0242157 0.60894775 -3.129547 1.1598816 -6.315979 1.652832c-3.163681 0.46392822 -5.7355957 0.69592285 -7.715744 0.69592285l0 9.264496l60.223724 0c9.968994 0 19.630737 -1.8268127 28.985214 -5.4804077c9.354477 -3.653595 17.78717 -9.1775055 25.298065 -16.571716c7.4426117 -7.3941956 13.485474 -16.876175 18.12857 -28.445923c4.643097 -11.569763 6.96463 -25.22728 6.96463 -40.972595c0 -16.963165 -2.4239502 -31.708069 -7.2719116 -44.234726c-4.847931 -12.526649 -11.539459 -22.661057 -20.074554 -30.403221c-6.281845 -5.828369 -13.656174 -10.453369 -22.123001 -13.875c-8.466827 -3.4506302 -17.07022 -5.1759415 -25.810165 -5.1759415z" fill-rule="evenodd"/><path fill="#eeff41" d="m327.3206 146.31953c4.301697 0 7.8181458 1.2613678 10.549377 3.7841034c2.7312317 2.5227203 4.88208 5.7848663 6.452545 9.786438c1.4338989 3.7406006 2.4694824 8.394592 3.106781 13.96199c0.6600342 5.567398 0.9900818 10.786835 0.9900818 15.65831l-46.704132 0c0.4096985 -13.570526 2.981598 -24.154388 7.7157593 -31.751572c4.756897 -7.626175 10.720093 -11.43927 17.889587 -11.43927zm46.08957 -6.1328278l0 8.612061c3.0726318 0.6089325 6.1224976 2.0297852 9.149628 4.2625427c3.0498962 2.2037659 5.2576294 5.306427 6.6232605 9.307999c5.8721313 17.659088 11.539459 34.91223 17.001923 51.759415c5.4624634 16.818176 11.437042 35.448685 17.923737 55.89148l7.988861 0c1.2973328 -5.045471 2.7084656 -10.30838 4.2333984 -15.788803c1.547699 -5.4804077 3.004364 -10.22139 4.3699646 -14.222961c4.643097 -13.918503 9.115509 -27.199081 13.417206 -39.841705c4.301697 -12.671631 8.466827 -24.835815 12.495392 -36.49257c1.980133 -5.3934174 4.347229 -9.148514 7.1011963 -11.265274c2.776764 -2.1457672 5.701477 -3.5666199 8.774109 -4.2625427l0 -7.9596405l-38.612823 0l0 8.3510895c0.9559326 0.17398071 2.184967 0.4784546 3.6871643 0.9134064c1.5021667 0.43495178 3.0384827 1.0873871 4.6089478 1.9572906c1.5704651 0.86990356 2.91333 1.899292 4.0285645 3.0881653c1.138031 1.1598816 1.7070312 2.4792328 1.7070312 3.9580688c0 2.0877838 -0.30725098 4.1610565 -0.92178345 6.2198334c-0.6145325 2.0297852 -1.2632141 4.21904 -1.9460144 6.567795c-4.301697 13.744507 -8.318878 26.184174 -12.051575 37.31897c-3.7099 11.134796 -6.793915 20.442795 -9.252045 27.923996c-3.209198 -9.74295 -7.3743286 -22.574066 -12.495392 -38.493362c-5.121063 -15.919281 -9.08136 -28.315445 -11.88089 -37.188477c-0.34140015 -1.391861 -0.6828003 -2.6242218 -1.0242004 -3.697113c-0.34140015 -1.1018677 -0.5121155 -1.7832947 -0.5121155 -2.0442657c0 -1.7398224 1.5363159 -3.1026764 4.6089783 -4.088562c3.0726318 -1.0148926 5.633148 -1.5658417 7.6815796 -1.652832l0 -9.134003zm-45.884735 -3.6536102c-7.1694946 0 -13.644806 1.899292 -19.425903 5.697891c-5.758362 3.7695923 -10.583527 8.742554 -14.475555 14.918884c-4.0285645 6.4373016 -7.089813 13.686523 -9.183777 21.74765c-2.071167 8.032135 -3.106781 16.223755 -3.106781 24.57486c0 9.307983 0.9673157 18.137543 2.901947 26.488632c1.9573975 8.351105 4.9162292 15.65831 8.876526 21.921646c3.960266 6.2633057 8.990295 11.221771 15.090057 14.875397c6.122528 3.653595 13.2464905 5.4804077 21.371918 5.4804077c9.2178955 0 17.377472 -3.0446777 24.478668 -9.134033c7.101227 -6.089325 12.768524 -14.266449 17.001953 -24.531342l-7.1694946 -5.610901c-4.096863 9.394989 -8.353027 15.904785 -12.768524 19.529404c-4.3927307 3.5955963 -9.627594 5.3934174 -15.70459 5.3934174c-5.9404297 0 -11.061493 -1.4498596 -15.36319 -4.349533c-4.301697 -2.9286957 -7.784027 -6.915756 -10.446991 -11.961212c-2.7312317 -5.2194366 -4.734131 -11.265289 -6.0086975 -18.137543c-1.251831 -6.8722534 -1.8777466 -14.527435 -1.8777466 -22.96553l66.8811 0l0 -8.612061c0 -7.7421722 -0.7738342 -14.9189 -2.3215332 -21.530182c-1.5249329 -6.6112823 -3.8578796 -12.352661 -6.9987793 -17.224136c-3.2774963 -5.1324463 -7.545044 -9.177521 -12.802673 -12.135193c-5.2576294 -2.9576874 -11.573608 -4.4365234 -18.947937 -4.4365234z" fill-rule="evenodd"/><path stroke="#eeff41" stroke-width="1.0" stroke-linejoin="round" stroke-linecap="butt" d="m185.46709 94.25565c8.398544 0 16.02324 2.044281 22.874084 6.132843c6.8736115 4.0885544 12.666107 9.699448 17.377487 16.83268c4.984497 7.4811935 8.774094 16.252747 11.368759 26.314667c2.5946808 10.032913 3.8920135 21.269196 3.8920135 33.708862c0 12.613632 -0.97869873 23.733932 -2.936081 33.3609c-1.9346161 9.597961 -5.0186462 18.050552 -9.25206 25.357758c-4.0285645 6.959259 -9.286194 12.396164 -15.772873 16.310745c-6.486679 3.9145813 -14.065857 5.8718567 -22.737534 5.8718567c-7.510895 0 -13.075775 -1.5223083 -16.694656 -4.5670013c-3.6188965 -3.0446625 -5.4283295 -8.52507 -5.4283295 -16.441223l0 -142.36014c1.707016 -0.08699036 4.3130646 -0.18847656 7.8181458 -0.30446625c3.5278473 -0.14498138 6.6915283 -0.21747589 9.491043 -0.21747589zm-58.175285 -10.569359l0 9.2645035c1.7752914 0.17398071 3.892006 0.5654373 6.3501205 1.1743698c2.4580994 0.6089325 4.745514 1.565834 6.8622284 2.8706894c2.3215485 1.3918533 3.8692474 3.262146 4.643097 5.6108932c0.7966156 2.3487473 1.1949158 5.0019608 1.1949158 7.959648l0 133.61758c0 3.1316528 -0.46658325 5.813858 -1.399765 8.046631c-0.9104004 2.2037506 -2.3898315 3.8710632 -4.4382477 5.001953c-1.0242157 0.60894775 -3.129547 1.1598816 -6.315979 1.652832c-3.163681 0.46392822 -5.7355957 0.69592285 -7.715744 0.69592285l0 9.264496l60.223724 0c9.968994 0 19.630737 -1.8268127 28.985214 -5.4804077c9.354477 -3.653595 17.78717 -9.1775055 25.298065 -16.571716c7.4426117 -7.3941956 13.485474 -16.876175 18.12857 -28.445923c4.643097 -11.569763 6.96463 -25.22728 6.96463 -40.972595c0 -16.963165 -2.4239502 -31.708069 -7.2719116 -44.234726c-4.847931 -12.526649 -11.539459 -22.661057 -20.074554 -30.403221c-6.281845 -5.828369 -13.656174 -10.453369 -22.123001 -13.875c-8.466827 -3.4506302 -17.07022 -5.1759415 -25.810165 -5.1759415z" fill-rule="evenodd"/><path stroke="#eeff41" stroke-width="1.0" stroke-linejoin="round" stroke-linecap="butt" d="m327.3206 146.31953c4.301697 0 7.8181458 1.2613678 10.549377 3.7841034c2.7312317 2.5227203 4.88208 5.7848663 6.452545 9.786438c1.4338989 3.7406006 2.4694824 8.394592 3.106781 13.96199c0.6600342 5.567398 0.9900818 10.786835 0.9900818 15.65831l-46.704132 0c0.4096985 -13.570526 2.981598 -24.154388 7.7157593 -31.751572c4.756897 -7.626175 10.720093 -11.43927 17.889587 -11.43927zm46.08957 -6.1328278l0 8.612061c3.0726318 0.6089325 6.1224976 2.0297852 9.149628 4.2625427c3.0498962 2.2037659 5.2576294 5.306427 6.6232605 9.307999c5.8721313 17.659088 11.539459 34.91223 17.001923 51.759415c5.4624634 16.818176 11.437042 35.448685 17.923737 55.89148l7.988861 0c1.2973328 -5.045471 2.7084656 -10.30838 4.2333984 -15.788803c1.547699 -5.4804077 3.004364 -10.22139 4.3699646 -14.222961c4.643097 -13.918503 9.115509 -27.199081 13.417206 -39.841705c4.301697 -12.671631 8.466827 -24.835815 12.495392 -36.49257c1.980133 -5.3934174 4.347229 -9.148514 7.1011963 -11.265274c2.776764 -2.1457672 5.701477 -3.5666199 8.774109 -4.2625427l0 -7.9596405l-38.612823 0l0 8.3510895c0.9559326 0.17398071 2.184967 0.4784546 3.6871643 0.9134064c1.5021667 0.43495178 3.0384827 1.0873871 4.6089478 1.9572906c1.5704651 0.86990356 2.91333 1.899292 4.0285645 3.0881653c1.138031 1.1598816 1.7070312 2.4792328 1.7070312 3.9580688c0 2.0877838 -0.30725098 4.1610565 -0.92178345 6.2198334c-0.6145325 2.0297852 -1.2632141 4.21904 -1.9460144 6.567795c-4.301697 13.744507 -8.318878 26.184174 -12.051575 37.31897c-3.7099 11.134796 -6.793915 20.442795 -9.252045 27.923996c-3.209198 -9.74295 -7.3743286 -22.574066 -12.495392 -38.493362c-5.121063 -15.919281 -9.08136 -28.315445 -11.88089 -37.188477c-0.34140015 -1.391861 -0.6828003 -2.6242218 -1.0242004 -3.697113c-0.34140015 -1.1018677 -0.5121155 -1.7832947 -0.5121155 -2.0442657c0 -1.7398224 1.5363159 -3.1026764 4.6089783 -4.088562c3.0726318 -1.0148926 5.633148 -1.5658417 7.6815796 -1.652832l0 -9.134003zm-45.884735 -3.6536102c-7.1694946 0 -13.644806 1.899292 -19.425903 5.697891c-5.758362 3.7695923 -10.583527 8.742554 -14.475555 14.918884c-4.0285645 6.4373016 -7.089813 13.686523 -9.183777 21.74765c-2.071167 8.032135 -3.106781 16.223755 -3.106781 24.57486c0 9.307983 0.9673157 18.137543 2.901947 26.488632c1.9573975 8.351105 4.9162292 15.65831 8.876526 21.921646c3.960266 6.2633057 8.990295 11.221771 15.090057 14.875397c6.122528 3.653595 13.2464905 5.4804077 21.371918 5.4804077c9.2178955 0 17.377472 -3.0446777 24.478668 -9.134033c7.101227 -6.089325 12.768524 -14.266449 17.001953 -24.531342l-7.1694946 -5.610901c-4.096863 9.394989 -8.353027 15.904785 -12.768524 19.529404c-4.3927307 3.5955963 -9.627594 5.3934174 -15.70459 5.3934174c-5.9404297 0 -11.061493 -1.4498596 -15.36319 -4.349533c-4.301697 -2.9286957 -7.784027 -6.915756 -10.446991 -11.961212c-2.7312317 -5.2194366 -4.734131 -11.265289 -6.0086975 -18.137543c-1.251831 -6.8722534 -1.8777466 -14.527435 -1.8777466 -22.96553l66.8811 0l0 -8.612061c0 -7.7421722 -0.7738342 -14.9189 -2.3215332 -21.530182c-1.5249329 -6.6112823 -3.8578796 -12.352661 -6.9987793 -17.224136c-3.2774963 -5.1324463 -7.545044 -9.177521 -12.802673 -12.135193c-5.2576294 -2.9576874 -11.573608 -4.4365234 -18.947937 -4.4365234z" fill-rule="evenodd"/></g></svg>